<svg viewBox="0 0 1200 300" xmlns="http://www.w3.org/2000/svg" preserveAspectRatio="none">
    <rect width="1200" height="300" fill="url(#skyGradient)" />
    <g fill="#1A1A1A" opacity="0.8">
        <path d="M100 300 L100 150 L110 150 L110 120 L120 120 L120 100 L130 100 L130 80 L140 80 L140 60 L150 60 L150 40 L160 40 L160 20 L170 20 L170 10 L180 10 L180 300 Z" />
        <path d="M180 10 L200 30 L200 50 L210 50 L210 70 L220 70 L220 90 L230 90 L230 110 L240 110 L240 130 L250 130 L250 150 L260 150 L260 300 Z" />
        <ellipse cx="350" cy="180" rx="60" ry="40" />
        <rect x="320" y="180" width="60" height="80" />
        <polygon points="320,180 350,140 380,180" />
        <rect x="450" y="200" width="40" height="100" />
        <rect x="500" y="180" width="30" height="120" />
        <rect x="540" y="190" width="35" height="110" />
        <rect x="580" y="170" width="45" height="130" />
    </g>
    <g fill="#5C4033" stroke="#3A2E28" stroke-width="2">
        <path d="M600 250 L600 180 L750 180 L800 220 L800 250 L600 250 Z" />
        <rect x="620" y="170" width="130" height="10" rx="5" />
        <rect x="650" y="160" width="60" height="20" rx="10" fill="#D4AF37" />
        <rect x="655" y="155" width="50" height="5" rx="2" fill="#1A1A1A" />
        <rect x="660" y="150" width="40" height="5" rx="2" fill="#1A1A1A" />
        <rect x="665" y="145" width="30" height="5" rx="2" fill="#1A1A1A" />
        <rect x="720" y="165" width="40" height="30" rx="2" fill="#F5F5DC" stroke="#5C4033" stroke-width="1" />
        <line x1="725" y1="170" x2="755" y2="170" stroke="#5C4033" stroke-width="0.5" />
        <line x1="725" y1="175" x2="755" y2="175" stroke="#5C4033" stroke-width="0.5" />
        <line x1="725" y1="180" x2="755" y2="180" stroke="#5C4033" stroke-width="0.5" />
        <line x1="725" y1="185" x2="755" y2="185" stroke="#5C4033" stroke-width="0.5" />
        <line x1="725" y1="190" x2="755" y2="190" stroke="#5C4033" stroke-width="0.5" />
    </g>
    <g fill="#D4AF37" opacity="0.8">
        <circle cx="50" cy="50" r="2" />
        <circle cx="100" cy="80" r="1.5" />
        <circle cx="150" cy="40" r="1" />
        <circle cx="200" cy="90" r="1.5" />
        <circle cx="250" cy="60" r="2" />
        <circle cx="300" cy="100" r="1" />
        <circle cx="400" cy="50" r="1.5" />
        <circle cx="450" cy="80" r="2" />
        <circle cx="500" cy="40" r="1" />
        <circle cx="550" cy="90" r="1.5" />
    </g>
    <defs>
        <linearGradient id="skyGradient" x1="0%" y1="0%" x2="0%" y2="100%">
            <stop offset="0%" style="stop-color:#0A1A2A;stop-opacity:1" />
            <stop offset="50%" style="stop-color:#1A2A3A;stop-opacity:1" />
            <stop offset="100%" style="stop-color:#2C3E50;stop-opacity:1" />
        </linearGradient>
    </defs>
</svg>
